<?xml version="1.0" encoding="UTF-8" standalone="no"?>
<!DOCTYPE svg PUBLIC "-//W3C//DTD SVG 20010904//EN"
              "http://www.w3.org/TR/2001/REC-SVG-20010904/DTD/svg10.dtd">

<svg xmlns="http://www.w3.org/2000/svg"
     width="128" height="128"
     viewBox="0 0 128 128">
  <path id="GAS"
        fill="#666666" stroke="#666666" stroke-width="1"
        d="M 41.92,55.19
           C 41.92,55.19 34.05,57.00 34.05,57.00
             32.86,51.17 29.63,48.25 24.38,48.25
             20.49,48.25 17.50,49.84 15.42,53.03
             13.52,55.94 12.58,59.93 12.58,65.02
             12.58,70.80 13.77,75.15 16.17,78.08
             18.20,80.53 20.90,81.75 24.27,81.75
             30.38,81.75 33.84,77.91 34.66,70.23
             34.66,70.23 23.80,70.23 23.80,70.23
             23.80,70.23 23.80,64.00 23.80,64.00
             23.80,64.00 42.22,64.00 42.22,64.00
             42.22,64.00 42.22,87.00 42.22,87.00
             42.22,87.00 36.83,87.00 36.83,87.00
             36.83,87.00 35.92,81.00 35.92,81.00
             34.65,83.41 32.82,85.22 30.44,86.44
             28.39,87.48 26.06,88.00 23.44,88.00
             17.11,88.00 12.20,85.75 8.70,81.23
             5.55,77.20 3.98,71.81 3.98,65.06
             3.98,57.38 6.11,51.45 10.38,47.28
             13.99,43.76 18.62,42.00 24.27,42.00
             29.30,42.00 33.41,43.36 36.56,46.08
             39.19,48.35 40.97,51.39 41.92,55.19 Z
           M 72.44,43.00
           C 72.44,43.00 86.78,87.00 86.78,87.00
             86.78,87.00 78.31,87.00 78.31,87.00
             78.31,87.00 74.36,74.02 74.36,74.02
             74.36,74.02 60.06,74.02 60.06,74.02
             60.06,74.02 56.05,87.00 56.05,87.00
             56.05,87.00 48.38,87.00 48.38,87.00
             48.38,87.00 62.64,43.00 62.64,43.00
             62.64,43.00 72.44,43.00 72.44,43.00 Z
           M 72.92,68.00
           C 72.92,68.00 70.20,59.22 70.20,59.22
             69.85,57.99 68.93,54.44 67.45,48.56
             67.45,48.56 66.92,48.56 66.92,48.56
             65.92,52.62 64.96,56.15 64.05,59.17
             64.05,59.17 61.53,68.00 61.53,68.00
             61.53,68.00 72.92,68.00 72.92,68.00 Z
           M 123.89,52.97
           C 123.89,52.97 116.03,55.00 116.03,55.00
             114.82,50.42 112.06,48.12 107.75,48.12
             105.13,48.12 103.13,48.67 101.73,49.77
             100.57,50.71 99.98,51.97 99.98,53.53
             99.98,55.62 100.66,57.21 102.00,58.30
             103.23,59.27 105.41,60.16 108.53,60.98
             108.53,60.98 111.00,61.67 111.00,61.67
             116.45,63.10 120.18,64.96 122.19,67.25
             123.81,69.12 124.62,71.64 124.62,74.81
             124.62,79.12 123.02,82.45 119.81,84.78
             116.88,86.93 112.88,88.00 107.81,88.00
             102.91,88.00 98.93,86.91 95.88,84.72
             93.12,82.75 91.24,79.97 90.23,76.38
             90.23,76.38 97.97,74.00 97.97,74.00
             98.60,76.69 99.86,78.72 101.73,80.09
             103.36,81.28 105.32,81.88 107.62,81.88
             113.56,81.88 116.53,79.81 116.53,75.69
             116.53,73.57 115.88,72.00 114.58,70.95
             113.30,69.93 110.93,68.96 107.45,68.03
             107.45,68.03 105.05,67.38 105.05,67.38
             99.87,65.91 96.32,64.04 94.39,61.78
             92.77,59.89 91.95,57.32 91.95,54.08
             91.95,50.35 93.48,47.36 96.53,45.11
             99.32,43.04 102.98,42.00 107.52,42.00
             115.97,42.00 121.43,45.66 123.89,52.97 Z" />
</svg>
