<?xml version="1.0" encoding="UTF-8" standalone="no"?>
<!DOCTYPE svg PUBLIC "-//W3C//DTD SVG 20010904//EN"
              "http://www.w3.org/TR/2001/REC-SVG-20010904/DTD/svg10.dtd">

<svg xmlns="http://www.w3.org/2000/svg"
     width="128" height="128"
     viewBox="0 0 128 128">
  <path id="regex"
        fill="#666666" stroke="#666666" stroke-width="1"
        d="M 36.64,102.27
           C 36.64,102.27 36.64,123.00 36.64,123.00
             36.64,123.00 15.19,123.00 15.19,123.00
             15.19,123.00 15.19,102.27 15.19,102.27
             15.19,102.27 36.64,102.27 36.64,102.27 Z
           M 92.56,7.00
           C 92.56,7.00 88.67,32.00 88.67,32.00
             88.67,32.00 108.45,16.58 108.45,16.58
             108.45,16.58 115.84,29.14 115.84,29.14
             115.84,29.14 91.97,38.58 91.97,38.58
             91.97,38.58 115.84,47.86 115.84,47.86
             115.84,47.86 108.45,60.58 108.45,60.58
             108.45,60.58 88.67,44.86 88.67,44.86
             88.67,44.86 92.56,70.00 92.56,70.00
             92.56,70.00 77.39,70.00 77.39,70.00
             77.39,70.00 81.34,45.00 81.34,45.00
             81.34,45.00 61.66,60.42 61.66,60.42
             61.66,60.42 54.17,47.86 54.17,47.86
             54.17,47.86 78.06,38.42 78.06,38.42
             78.06,38.42 54.17,29.14 54.17,29.14
             54.17,29.14 61.66,16.58 61.66,16.58
             61.66,16.58 81.34,32.00 81.34,32.00
             81.34,32.00 77.39,7.00 77.39,7.00
             77.39,7.00 92.56,7.00 92.56,7.00 Z" />
</svg>
