<?xml version="1.0" encoding="UTF-8" standalone="no"?>
<!DOCTYPE svg PUBLIC "-//W3C//DTD SVG 20010904//EN"
              "http://www.w3.org/TR/2001/REC-SVG-20010904/DTD/svg10.dtd">

<svg xmlns="http://www.w3.org/2000/svg"
     width="128" height="128"
     viewBox="0 0 128 128">
  <path id="VBA"
        fill="#666666" stroke="#666666" stroke-width="1"
        d="M 40.78,43.00
           C 40.78,43.00 26.55,87.00 26.55,87.00
             26.55,87.00 16.47,87.00 16.47,87.00
             16.47,87.00 2.38,43.00 2.38,43.00
             2.38,43.00 11.08,43.00 11.08,43.00
             11.08,43.00 17.14,63.70 17.14,63.70
             17.30,64.23 18.75,69.67 21.52,80.00
             21.52,80.00 22.36,80.00 22.36,80.00
             23.94,73.70 25.38,68.34 26.67,63.92
             26.67,63.92 32.78,43.00 32.78,43.00
             32.78,43.00 40.78,43.00 40.78,43.00 Z
           M 47.56,43.00
           C 47.56,43.00 64.17,43.00 64.17,43.00
             70.15,43.00 74.42,44.09 76.98,46.28
             79.05,48.04 80.09,50.61 80.09,53.97
             80.09,56.68 79.14,58.91 77.25,60.66
             75.62,62.18 73.48,63.15 70.83,63.58
             70.83,63.58 70.83,63.97 70.83,63.97
             74.50,64.54 77.27,65.86 79.12,67.92
             80.72,69.70 81.52,71.91 81.52,74.55
             81.52,78.73 79.91,81.91 76.69,84.09
             73.81,86.03 69.93,87.00 65.03,87.00
             65.03,87.00 47.56,87.00 47.56,87.00
             47.56,87.00 47.56,43.00 47.56,43.00 Z
           M 55.48,49.06
           C 55.48,49.06 55.48,61.00 55.48,61.00
             55.48,61.00 62.56,61.00 62.56,61.00
             65.88,61.00 68.37,60.37 70.02,59.09
             71.38,58.04 72.06,56.62 72.06,54.81
             72.06,52.73 71.30,51.23 69.80,50.33
             68.41,49.48 66.23,49.06 63.27,49.06
             63.27,49.06 55.48,49.06 55.48,49.06 Z
           M 55.48,67.08
           C 55.48,67.08 55.48,80.92 55.48,80.92
             55.48,80.92 64.12,80.92 64.12,80.92
             67.36,80.92 69.77,80.23 71.36,78.83
             72.68,77.64 73.34,76.01 73.34,73.92
             73.34,71.62 72.33,69.87 70.30,68.67
             68.50,67.61 66.10,67.08 63.09,67.08
             63.09,67.08 55.48,67.08 55.48,67.08 Z
           M 110.44,43.00
           C 110.44,43.00 124.78,87.00 124.78,87.00
             124.78,87.00 116.31,87.00 116.31,87.00
             116.31,87.00 112.36,74.02 112.36,74.02
             112.36,74.02 98.06,74.02 98.06,74.02
             98.06,74.02 94.05,87.00 94.05,87.00
             94.05,87.00 86.38,87.00 86.38,87.00
             86.38,87.00 100.64,43.00 100.64,43.00
             100.64,43.00 110.44,43.00 110.44,43.00 Z
           M 110.92,68.00
           C 110.92,68.00 108.20,59.22 108.20,59.22
             107.85,57.99 106.93,54.44 105.45,48.56
             105.45,48.56 104.92,48.56 104.92,48.56
             103.92,52.62 102.96,56.15 102.05,59.17
             102.05,59.17 99.53,68.00 99.53,68.00
             99.53,68.00 110.92,68.00 110.92,68.00 Z" />
</svg>
