<?xml version="1.0" encoding="UTF-8" standalone="no"?>
<!DOCTYPE svg PUBLIC "-//W3C//DTD SVG 20010904//EN"
              "http://www.w3.org/TR/2001/REC-SVG-20010904/DTD/svg10.dtd">

<svg xmlns="http://www.w3.org/2000/svg"
     width="128" height="128"
     viewBox="0 0 128 128">
  <path id="パス #2"
        fill="#0078d4" stroke="#0078d4" stroke-width="1"
        d="M 56.47,43.00
           C 56.47,43.00 47.16,87.00 47.16,87.00
             47.16,87.00 37.19,87.00 37.19,87.00
             37.19,87.00 33.17,66.50 33.17,66.50
             32.72,64.22 31.86,58.72 30.59,50.00
             30.59,50.00 29.75,50.00 29.75,50.00
             28.61,57.79 27.75,63.22 27.17,66.28
             27.17,66.28 23.39,87.00 23.39,87.00
             23.39,87.00 13.44,87.00 13.44,87.00
             13.44,87.00 4.38,43.00 4.38,43.00
             4.38,43.00 12.61,43.00 12.61,43.00
             12.61,43.00 15.95,62.84 15.95,62.84
             16.89,68.71 17.67,74.09 18.30,79.00
             18.30,79.00 19.14,79.00 19.14,79.00
             19.34,77.76 19.60,75.95 19.94,73.58
             20.60,68.82 21.16,65.30 21.61,63.02
             21.61,63.02 25.39,43.00 25.39,43.00
             25.39,43.00 35.75,43.00 35.75,43.00
             35.75,43.00 39.66,63.67 39.66,63.67
             40.61,68.87 41.38,73.98 41.94,79.00
             41.94,79.00 42.78,79.00 42.78,79.00
             42.98,77.74 43.39,74.90 44.02,70.48
             44.42,67.67 44.79,65.29 45.12,63.34
             45.12,63.34 48.70,43.00 48.70,43.00
             48.70,43.00 56.47,43.00 56.47,43.00 Z
           M 70.36,56.00
           C 70.36,56.00 70.36,87.00 70.36,87.00
             70.36,87.00 62.81,87.00 62.81,87.00
             62.81,87.00 62.81,56.00 62.81,56.00
             62.81,56.00 70.36,56.00 70.36,56.00 Z
           M 70.69,42.00
           C 70.69,42.00 70.69,49.73 70.69,49.73
             70.69,49.73 62.52,49.73 62.52,49.73
             62.52,49.73 62.52,42.00 62.52,42.00
             62.52,42.00 70.69,42.00 70.69,42.00 Z
           M 87.19,56.00
           C 87.19,56.00 87.19,61.00 87.19,61.00
             88.63,59.02 90.35,57.50 92.34,56.44
             94.16,55.48 96.04,55.00 98.00,55.00
             100.99,55.00 103.34,55.93 105.06,57.78
             106.62,59.46 107.41,61.67 107.41,64.41
             107.41,64.41 107.41,87.00 107.41,87.00
             107.41,87.00 99.67,87.00 99.67,87.00
             99.67,87.00 99.67,66.67 99.67,66.67
             99.67,63.20 98.14,61.47 95.09,61.47
             93.69,61.47 92.24,62.00 90.77,63.06
             89.49,64.00 88.38,65.22 87.42,66.72
             87.42,66.72 87.42,87.00 87.42,87.00
             87.42,87.00 79.86,87.00 79.86,87.00
             79.86,87.00 79.86,56.00 79.86,56.00
             79.86,56.00 87.19,56.00 87.19,56.00 Z
           M 124.66,78.70
           C 124.66,78.70 124.66,87.00 124.66,87.00
             124.66,87.00 116.08,87.00 116.08,87.00
             116.08,87.00 116.08,78.70 116.08,78.70
             116.08,78.70 124.66,78.70 124.66,78.70 Z" />
</svg>
